<?xml version="1.0" encoding="UTF-8"?>
<svg version="1.1" xmlns="http://www.w3.org/2000/svg" width="76" height="45">
<path d="M0 0 C0.33 0 0.66 0 1 0 C0.56535175 4.60727147 -0.17033417 8.85822011 -1.4375 13.3125 C-4.72389019 22.72675897 -4.72389019 22.72675897 -4 32 C-6.45454545 37.72727273 -6.45454545 37.72727273 -9 39 C-11.14323306 39.12271508 -13.29079002 39.17553395 -15.4375 39.1875 C-16.59121094 39.20167969 -17.74492187 39.21585938 -18.93359375 39.23046875 C-22 39 -22 39 -25 37 C-24.01 36.01 -23.02 35.02 -22 34 C-25.465 34.495 -25.465 34.495 -29 35 C-32.27339524 30.87267557 -33.34840706 27.66913583 -33.2890625 22.328125 C-32.60756164 16.83928023 -30.48021961 10.49480046 -26 7 C-21.57894737 7.42105263 -21.57894737 7.42105263 -20 9 C-19.34 8.34 -18.68 7.68 -18 7 C-18 7.99 -18 8.98 -18 10 C-17.401875 9.649375 -16.80375 9.29875 -16.1875 8.9375 C-14 8 -14 8 -11 9 C-11.66 9 -12.32 9 -13 9 C-13 9.66 -13 10.32 -13 11 C-11.68 11.33 -10.36 11.66 -9 12 C-9.103125 11.2575 -9.20625 10.515 -9.3125 9.75 C-9 7 -9 7 -6.5 4.6875 C-5.675 4.130625 -4.85 3.57375 -4 3 C-3.67 3.66 -3.34 4.32 -3 5 C-2.525625 4.175 -2.05125 3.35 -1.5625 2.5 C-1.046875 1.675 -0.53125 0.85 0 0 Z M-25 8 C-28.10903596 12.39655642 -28.10903596 12.39655642 -28.75 17.4375 C-28.5025 17.953125 -28.255 18.46875 -28 19 C-24.66050716 14.36960931 -24.66050716 14.36960931 -23 9 C-23.66 8.67 -24.32 8.34 -25 8 Z M-8 9 C-8.33 10.32 -8.66 11.64 -9 13 C-7.515 13.99 -7.515 13.99 -6 15 C-6.33 13.02 -6.66 11.04 -7 9 C-7.33 9 -7.66 9 -8 9 Z M-30 20 C-30.02694851 21.95825873 -30.04637218 23.91662226 -30.0625 25.875 C-30.07410156 26.96554688 -30.08570313 28.05609375 -30.09765625 29.1796875 C-30.19744303 31.95177546 -30.19744303 31.95177546 -29 34 C-28.01 33.67 -27.02 33.34 -26 33 C-26.82187261 28.61667943 -27.90154282 24.32059823 -29 20 C-29.33 20 -29.66 20 -30 20 Z " fill="#E9E8E2" transform="translate(34,4)"/>
<path d="M0 0 C0.33 0 0.66 0 1 0 C0.56535175 4.60727147 -0.17033417 8.85822011 -1.4375 13.3125 C-4.72389019 22.72675897 -4.72389019 22.72675897 -4 32 C-6.45454545 37.72727273 -6.45454545 37.72727273 -9 39 C-11.14323306 39.12271508 -13.29079002 39.17553395 -15.4375 39.1875 C-16.59121094 39.20167969 -17.74492187 39.21585938 -18.93359375 39.23046875 C-22 39 -22 39 -25 37 C-23.02 35.68 -21.04 34.36 -19 33 C-19 33.66 -19 34.32 -19 35 C-17.02 33.68 -15.04 32.36 -13 31 C-13 31.66 -13 32.32 -13 33 C-9.08634173 30.39089448 -8.04848567 27.42693951 -7 23 C-6.7714412 19.64780421 -6.81447136 16.35325839 -7 13 C-7.66 12.67 -8.32 12.34 -9 12 C-9.3125 9.75 -9.3125 9.75 -9 7 C-6.5 4.6875 -6.5 4.6875 -4 3 C-3.67 3.66 -3.34 4.32 -3 5 C-2.525625 4.175 -2.05125 3.35 -1.5625 2.5 C-1.046875 1.675 -0.53125 0.85 0 0 Z " fill="#E8BB1C" transform="translate(34,4)"/>
<path d="M0 0 C1.33599921 0.32248257 2.66893378 0.65772583 4 1 C5.32 1 6.64 1 8 1 C8 3.64 8 6.28 8 9 C7.2575 8.814375 6.515 8.62875 5.75 8.4375 C3.05009037 8.00796892 1.55368923 8.14877026 -1 9 C-1.09765625 2.84765625 -1.09765625 2.84765625 -1 1 C-0.67 0.67 -0.34 0.34 0 0 Z " fill="#B6B2AF" transform="translate(65,17)"/>
<path d="M0 0 C0.99 0.33 1.98 0.66 3 1 C2.38125 1.495 1.7625 1.99 1.125 2.5 C-4.59111185 9.22483747 -3.20967728 18.70609851 -3 27 C-6.25649441 24.02667902 -6.92164036 21.89329993 -7.3125 17.4375 C-7.24884531 11.7085777 -5.25953458 5.47524194 -1.36328125 1.20703125 C-0.91339844 0.80871094 -0.46351563 0.41039062 0 0 Z " fill="#B6B2AF" transform="translate(8,11)"/>
<path d="M0 0 C5.625 -0.25 5.625 -0.25 9 2 C9.1875 4.625 9.1875 4.625 9 7 C6.42786866 8.61949011 5.32330841 9.04408751 2.25 8.625 C1.13625 8.315625 1.13625 8.315625 0 8 C0 5.36 0 2.72 0 0 Z M3 3 C3 3.99 3 4.98 3 6 C3.99 5.67 4.98 5.34 6 5 C6 4.34 6 3.68 6 3 C5.01 3 4.02 3 3 3 Z " fill="#B6B2AF" transform="translate(36,27)"/>
<path d="M0 0 C0.66 2.31 1.32 4.62 2 7 C0 9 0 9 -3.125 9.125 C-4.548125 9.063125 -4.548125 9.063125 -6 9 C-6.82638376 6.10765685 -7 4.11257569 -7 1 C-4.53721199 -0.231394 -2.7204945 -0.07159196 0 0 Z " fill="#B6B2AF" transform="translate(62,27)"/>
<path d="M0 0 C1.010625 0.0825 2.02125 0.165 3.0625 0.25 C5.2144437 3.47791555 5.26336443 4.53400809 5.0625 8.25 C4.0725 8.58 3.0825 8.91 2.0625 9.25 C2.0625 8.26 2.0625 7.27 2.0625 6.25 C1.0725 6.25 0.0825 6.25 -0.9375 6.25 C-0.9375 7.24 -0.9375 8.23 -0.9375 9.25 C-1.9275 9.25 -2.9175 9.25 -3.9375 9.25 C-4.03515625 3.09765625 -4.03515625 3.09765625 -3.9375 1.25 C-2.9375 0.25 -2.9375 0.25 0 0 Z M-0.9375 2.25 C-0.9375 2.91 -0.9375 3.57 -0.9375 4.25 C0.0525 3.92 1.0425 3.59 2.0625 3.25 C1.0725 2.92 0.0825 2.59 -0.9375 2.25 Z " fill="#B6B2AF" transform="translate(57.9375,16.75)"/>
<path d="M0 0 C0.99 0.33 1.98 0.66 3 1 C2.05833984 1.78890625 2.05833984 1.78890625 1.09765625 2.59375 C-1.47522876 5.54514137 -1.8649448 7.67441424 -2.5625 11.5 C-3.35944289 15.81636151 -4.06343867 18.68111629 -7 22 C-6.79806427 19.26633269 -6.5646582 16.54161041 -6.3125 13.8125 C-6.25900391 13.04357422 -6.20550781 12.27464844 -6.15039062 11.48242188 C-5.7227165 7.14989701 -5.33071807 5.39075766 -2.41796875 1.94921875 C-1.62003906 1.30597656 -0.82210938 0.66273437 0 0 Z " fill="#B6B2AF" transform="translate(20,12)"/>
<path d="M0 0 C0.99 0.33 1.98 0.66 3 1 C3 2.65 3 4.3 3 6 C3.66 6 4.32 6 5 6 C5 4.02 5 2.04 5 0 C5.99 0.33 6.98 0.66 8 1 C8.125 3.875 8.125 3.875 8 7 C6 9 6 9 3.4375 9.1875 C1 9 1 9 0 8 C-0.14115161 5.32941149 -0.04247107 2.67567762 0 0 Z " fill="#B6B2AF" transform="translate(46,27)"/>
<path d="M0 0 C1.4540625 0.0309375 1.4540625 0.0309375 2.9375 0.0625 C2.0625 4.9375 2.0625 4.9375 0.9375 6.0625 C1.5975 6.3925 2.2575 6.7225 2.9375 7.0625 C2.9375 7.7225 2.9375 8.3825 2.9375 9.0625 C0.6275 9.0625 -1.6825 9.0625 -4.0625 9.0625 C-4.16015625 2.91015625 -4.16015625 2.91015625 -4.0625 1.0625 C-3.0625 0.0625 -3.0625 0.0625 0 0 Z " fill="#B6B2AF" transform="translate(49.0625,16.9375)"/>
<path d="M0 0 C2.64 0 5.28 0 8 0 C7.67 0.99 7.34 1.98 7 3 C6.34 3 5.68 3 5 3 C5 4.98 5 6.96 5 9 C4.01 9 3.02 9 2 9 C2 7.02 2 5.04 2 3 C1.01 2.67 0.02 2.34 -1 2 C-0.67 1.34 -0.34 0.68 0 0 Z " fill="#B6B2AF" transform="translate(36,17)"/>
<path d="M0 0 C2.31 0 4.62 0 7 0 C7 0.99 7 1.98 7 3 C6.34 3 5.68 3 5 3 C5 4.98 5 6.96 5 9 C4.01 9 3.02 9 2 9 C2 7.02 2 5.04 2 3 C1.01 2.67 0.02 2.34 -1 2 C-0.67 1.34 -0.34 0.68 0 0 Z " fill="#B6B2AF" transform="translate(65,27)"/>
<path d="" fill="#EBEAE6" transform="translate(0,0)"/>
</svg>
